<svg width="9" height="13" viewBox="0 0 9 13" fill="none" xmlns="http://www.w3.org/2000/svg">
<path d="M5.00714 13.0018C4.19667 13.0128 3.38621 12.8477 2.65239 12.5067C1.96234 12.1875 1.39291 11.6593 0.998569 11.0101C0.593335 10.3389 0.396159 9.50249 0.396159 8.50114C0.385267 7.68685 0.593335 6.8836 0.998569 6.17935C1.4148 5.46405 2.0171 4.86985 2.74003 4.47374C3.50663 4.04461 4.42662 3.83546 5.51091 3.83546C5.56568 3.83546 5.64232 3.83546 5.74086 3.84651C5.8395 3.85745 5.94903 3.85745 6.08044 3.86849V0.391221C6.08044 0.31421 6.11332 0.270232 6.18997 0.270232H8.4132C8.46797 0.259187 8.51185 0.303164 8.52274 0.347244C8.52274 0.358187 8.52274 0.369233 8.52274 0.369233V10.845C8.52274 11.0431 8.53373 11.2631 8.54472 11.5053C8.56661 11.7363 8.5775 11.9564 8.58849 12.1435C8.58849 12.2205 8.55562 12.2866 8.47897 12.3196C7.90944 12.5617 7.30704 12.7377 6.69374 12.8477C6.13521 12.9467 5.57667 13.0018 5.00714 13.0018ZM6.08044 10.8011V5.95925C5.98191 5.93727 5.88326 5.91528 5.78473 5.90423C5.66421 5.89319 5.54379 5.88224 5.42327 5.88224C4.99615 5.88224 4.56903 5.9703 4.18568 6.1683C3.81332 6.35536 3.49573 6.63047 3.25479 6.9826C3.01375 7.33472 2.89332 7.80794 2.89332 8.38015C2.88233 8.76531 2.94809 9.15037 3.0795 9.51354C3.18903 9.81064 3.35332 10.0747 3.57238 10.2948C3.78044 10.4929 4.03238 10.6469 4.3171 10.735C4.6128 10.834 4.9195 10.8781 5.2262 10.8781C5.39039 10.8781 5.54379 10.867 5.6862 10.856C5.82851 10.867 5.94903 10.845 6.08044 10.8011Z" fill="#FF61F6"/>
</svg>
